<svg viewBox="0 0 32 32" xmlns="http://www.w3.org/2000/svg" aria-hidden="true" role="presentation" focusable="false" style="display: block; fill: none; height: 24px; width: 24px; stroke: currentcolor; stroke-width: 2.66667; overflow: visible;"><path d="m16 7.75c1.1736 0 2.2361.4757 3.0052 1.2448s1.2448 1.8316 1.2448 3.0052-.4757 2.2361-1.2448 3.0052-1.8316 1.2448-3.0052 1.2448-2.2361-.4757-3.0052-1.2448-1.2448-1.8316-1.2448-3.0052.4757-2.2361 1.2448-3.0052 1.8316-1.2448 3.0052-1.2448zm0-7c3.1066 0 5.9191 1.2592 7.955 3.29505 2.0358 2.03585 3.295 4.84835 3.295 7.95495 0 6.0485-3.6327 12.1363-10.6652 18.322l-.5848.5068-.5807-.5033c-7.03662-6.1892-10.6693-12.277-10.6693-18.3255 0-3.08608 1.26863-5.90041 3.31064-7.94242 2.03806-2.03803 4.84746-3.30758 7.93936-3.30758z"/></svg>