<svg id="l_d_1703" xmlns="http://www.w3.org/2000/svg" xmlns:xlink="http://www.w3.org/1999/xlink" viewBox="0 0 45 45" width="45" height="45" preserveAspectRatio="xMidYMid meet" style="width: 100%; height: 100%; transform: translate3d(0px, 0px, 0px); content-visibility: visible;"><defs id="l_d_1704"><clipPath id="__lottie_element_693"><rect id="l_d_1707" width="45" height="45" x="0" y="0"/></clipPath><clipPath id="__lottie_element_695"><path id="l_d_1710" fill="#ffffff" clip-rule="nonzero" d=" M11.722000122070312,2.2880001068115234 C11.722000122070312,2.2880001068115234 -10.972000122070312,2.2880001068115234 -10.972000122070312,2.2880001068115234 C-10.972000122070312,2.2880001068115234 -10.972000122070312,6.083000183105469 -10.972000122070312,6.083000183105469 C-10.972000122070312,6.083000183105469 11.722000122070312,6.083000183105469 11.722000122070312,6.083000183105469 C11.722000122070312,6.083000183105469 11.722000122070312,2.2880001068115234 11.722000122070312,2.2880001068115234" fill-opacity="1"/><path id="l_d_1711" fill="#ffffff" clip-rule="nonzero" d=" M11.722000122070312,2.2880001068115234 C11.722000122070312,2.2880001068115234 -10.972000122070312,2.2880001068115234 -10.972000122070312,2.2880001068115234 C-10.972000122070312,2.2880001068115234 -10.972000122070312,6.083000183105469 -10.972000122070312,6.083000183105469 C-10.972000122070312,6.083000183105469 11.722000122070312,6.083000183105469 11.722000122070312,6.083000183105469 C11.722000122070312,6.083000183105469 11.722000122070312,2.2880001068115234 11.722000122070312,2.2880001068115234" fill-opacity="1"/></clipPath><clipPath id="__lottie_element_698"><path id="l_d_1718" fill="#ffffff" clip-rule="nonzero" d=" M11.722000122070312,2.2880001068115234 C11.722000122070312,2.2880001068115234 -10.972000122070312,2.2880001068115234 -10.972000122070312,2.2880001068115234 C-10.972000122070312,2.2880001068115234 -10.972000122070312,6.083000183105469 -10.972000122070312,6.083000183105469 C-10.972000122070312,6.083000183105469 11.722000122070312,6.083000183105469 11.722000122070312,6.083000183105469 C11.722000122070312,6.083000183105469 11.722000122070312,2.2880001068115234 11.722000122070312,2.2880001068115234" fill-opacity="1"/><path id="l_d_1719" fill="#ffffff" clip-rule="nonzero" d=" M11.722000122070312,2.2880001068115234 C11.722000122070312,2.2880001068115234 -10.972000122070312,2.2880001068115234 -10.972000122070312,2.2880001068115234 C-10.972000122070312,2.2880001068115234 -10.972000122070312,6.083000183105469 -10.972000122070312,6.083000183105469 C-10.972000122070312,6.083000183105469 11.722000122070312,6.083000183105469 11.722000122070312,6.083000183105469 C11.722000122070312,6.083000183105469 11.722000122070312,2.2880001068115234 11.722000122070312,2.2880001068115234" fill-opacity="1"/></clipPath><clipPath id="__lottie_element_701"><path id="l_d_1726" fill="#ffffff" clip-rule="nonzero" d=" M11.722000122070312,2.2880001068115234 C11.722000122070312,2.2880001068115234 -10.972000122070312,2.2880001068115234 -10.972000122070312,2.2880001068115234 C-10.972000122070312,2.2880001068115234 -10.972000122070312,6.083000183105469 -10.972000122070312,6.083000183105469 C-10.972000122070312,6.083000183105469 11.722000122070312,6.083000183105469 11.722000122070312,6.083000183105469 C11.722000122070312,6.083000183105469 11.722000122070312,2.2880001068115234 11.722000122070312,2.2880001068115234" fill-opacity="1"/><path id="l_d_1727" fill="#ffffff" clip-rule="nonzero" d=" M11.722000122070312,2.2880001068115234 C11.722000122070312,2.2880001068115234 -10.972000122070312,2.2880001068115234 -10.972000122070312,2.2880001068115234 C-10.972000122070312,2.2880001068115234 -10.972000122070312,6.083000183105469 -10.972000122070312,6.083000183105469 C-10.972000122070312,6.083000183105469 11.722000122070312,6.083000183105469 11.722000122070312,6.083000183105469 C11.722000122070312,6.083000183105469 11.722000122070312,2.2880001068115234 11.722000122070312,2.2880001068115234" fill-opacity="1"/></clipPath><clipPath id="__lottie_element_704"><path id="l_d_1734" fill="#ffffff" clip-rule="nonzero" d=" M11.722000122070312,2.2880001068115234 C11.722000122070312,2.2880001068115234 -10.972000122070312,2.2880001068115234 -10.972000122070312,2.2880001068115234 C-10.972000122070312,2.2880001068115234 -10.972000122070312,6.083000183105469 -10.972000122070312,6.083000183105469 C-10.972000122070312,6.083000183105469 11.722000122070312,6.083000183105469 11.722000122070312,6.083000183105469 C11.722000122070312,6.083000183105469 11.722000122070312,2.2880001068115234 11.722000122070312,2.2880001068115234" fill-opacity="1"/><path id="l_d_1735" fill="#ffffff" clip-rule="nonzero" d=" M11.722000122070312,2.2880001068115234 C11.722000122070312,2.2880001068115234 -10.972000122070312,2.2880001068115234 -10.972000122070312,2.2880001068115234 C-10.972000122070312,2.2880001068115234 -10.972000122070312,6.083000183105469 -10.972000122070312,6.083000183105469 C-10.972000122070312,6.083000183105469 11.722000122070312,6.083000183105469 11.722000122070312,6.083000183105469 C11.722000122070312,6.083000183105469 11.722000122070312,2.2880001068115234 11.722000122070312,2.2880001068115234" fill-opacity="1"/></clipPath><clipPath id="__lottie_element_707"><path id="l_d_1742" fill="#ffffff" clip-rule="nonzero" d=" M11.722000122070312,2.2880001068115234 C11.722000122070312,2.2880001068115234 -10.972000122070312,2.2880001068115234 -10.972000122070312,2.2880001068115234 C-10.972000122070312,2.2880001068115234 -10.972000122070312,6.083000183105469 -10.972000122070312,6.083000183105469 C-10.972000122070312,6.083000183105469 11.722000122070312,6.083000183105469 11.722000122070312,6.083000183105469 C11.722000122070312,6.083000183105469 11.722000122070312,2.2880001068115234 11.722000122070312,2.2880001068115234" fill-opacity="1"/><path id="l_d_1743" fill="#ffffff" clip-rule="nonzero" d=" M11.722000122070312,2.2880001068115234 C11.722000122070312,2.2880001068115234 -10.972000122070312,2.2880001068115234 -10.972000122070312,2.2880001068115234 C-10.972000122070312,2.2880001068115234 -10.972000122070312,6.083000183105469 -10.972000122070312,6.083000183105469 C-10.972000122070312,6.083000183105469 11.722000122070312,6.083000183105469 11.722000122070312,6.083000183105469 C11.722000122070312,6.083000183105469 11.722000122070312,2.2880001068115234 11.722000122070312,2.2880001068115234" fill-opacity="1"/></clipPath><clipPath id="__lottie_element_710"><path id="l_d_1750" fill="#ffffff" clip-rule="nonzero" d=" M11.722000122070312,2.2880001068115234 C11.722000122070312,2.2880001068115234 -10.972000122070312,2.2880001068115234 -10.972000122070312,2.2880001068115234 C-10.972000122070312,2.2880001068115234 -10.972000122070312,6.083000183105469 -10.972000122070312,6.083000183105469 C-10.972000122070312,6.083000183105469 11.722000122070312,6.083000183105469 11.722000122070312,6.083000183105469 C11.722000122070312,6.083000183105469 11.722000122070312,2.2880001068115234 11.722000122070312,2.2880001068115234" fill-opacity="1"/><path id="l_d_1751" fill="#ffffff" clip-rule="nonzero" d=" M11.722000122070312,2.2880001068115234 C11.722000122070312,2.2880001068115234 -10.972000122070312,2.2880001068115234 -10.972000122070312,2.2880001068115234 C-10.972000122070312,2.2880001068115234 -10.972000122070312,6.083000183105469 -10.972000122070312,6.083000183105469 C-10.972000122070312,6.083000183105469 11.722000122070312,6.083000183105469 11.722000122070312,6.083000183105469 C11.722000122070312,6.083000183105469 11.722000122070312,2.2880001068115234 11.722000122070312,2.2880001068115234" fill-opacity="1"/></clipPath><clipPath id="__lottie_element_713"><path id="l_d_1758" fill="#ffffff" clip-rule="nonzero" d=" M11.722000122070312,2.2880001068115234 C11.722000122070312,2.2880001068115234 -10.972000122070312,2.2880001068115234 -10.972000122070312,2.2880001068115234 C-10.972000122070312,2.2880001068115234 -10.972000122070312,6.083000183105469 -10.972000122070312,6.083000183105469 C-10.972000122070312,6.083000183105469 11.722000122070312,6.083000183105469 11.722000122070312,6.083000183105469 C11.722000122070312,6.083000183105469 11.722000122070312,2.2880001068115234 11.722000122070312,2.2880001068115234" fill-opacity="1"/><path id="l_d_1759" fill="#ffffff" clip-rule="nonzero" d=" M11.722000122070312,2.2880001068115234 C11.722000122070312,2.2880001068115234 -10.972000122070312,2.2880001068115234 -10.972000122070312,2.2880001068115234 C-10.972000122070312,2.2880001068115234 -10.972000122070312,6.083000183105469 -10.972000122070312,6.083000183105469 C-10.972000122070312,6.083000183105469 11.722000122070312,6.083000183105469 11.722000122070312,6.083000183105469 C11.722000122070312,6.083000183105469 11.722000122070312,2.2880001068115234 11.722000122070312,2.2880001068115234" fill-opacity="1"/></clipPath></defs><g id="l_d_1705" clip-path="url(#__lottie_element_693)"><g id="l_d_1782" transform="matrix(1.0000008344650269,0,0,1.0000008344650269,-24.00003433227539,-18.374406814575195)" opacity="1" style="display: block;"><g id="l_d_1786" opacity="1" transform="matrix(1,0,0,1,51,50)"><path id="l_d_1787" stroke-linecap="butt" stroke-linejoin="miter" fill-opacity="0" stroke-miterlimit="4" stroke="rgb(34,34,34)" stroke-opacity="1" stroke-width="2" d=" M-2,-2 C-2,-2 2,-2 2,-2 C2,-2 2,1 2,1 C2,1.5520000457763672 1.5520000457763672,2 1,2 C1,2 -1,2 -1,2 C-1.5520000457763672,2 -2,1.5520000457763672 -2,1 C-2,1 -2,-2 -2,-2 C-2,-2 -2,-2 -2,-2z"/></g><g id="l_d_1788" opacity="1" transform="matrix(1,0,0,1,29,50)"><path id="l_d_1789" stroke-linecap="butt" stroke-linejoin="miter" fill-opacity="0" stroke-miterlimit="4" stroke="rgb(34,34,34)" stroke-opacity="1" stroke-width="2" d=" M-2,-2 C-2,-2 2,-2 2,-2 C2,-2 2,1 2,1 C2,1.5520000457763672 1.5520000457763672,2 1,2 C1,2 -1,2 -1,2 C-1.5520000457763672,2 -2,1.5520000457763672 -2,1 C-2,1 -2,-2 -2,-2 C-2,-2 -2,-2 -2,-2z"/></g></g><g id="l_d_1764" transform="matrix(1.0000008344650269,0,0,1.0000008344650269,-24.00003433227539,-19.108909606933594)" opacity="1" style="display: block;"><g id="l_d_1768" opacity="1" transform="matrix(1,0,0,1,40,43)"><path id="l_d_1769" stroke-linecap="butt" stroke-linejoin="miter" fill-opacity="0" stroke-miterlimit="4" stroke="rgb(34,34,34)" stroke-opacity="1" stroke-width="2" d=" M-9,-5 C-9,-5 9,-5 9,-5 C11.208999633789062,-5 13,-3.2090001106262207 13,-1 C13,-1 13,4 13,4 C13,4.552000045776367 12.552000045776367,5 12,5 C12,5 -12,5 -12,5 C-12.552000045776367,5 -13,4.552000045776367 -13,4 C-13,4 -13,-1 -13,-1 C-13,-3.2090001106262207 -11.208999633789062,-5 -9,-5z"/></g><g id="l_d_1770" opacity="1" transform="matrix(1,0,0,1,49,43)"><path id="l_d_1771" fill="rgb(34,34,34)" fill-opacity="1" d=" M0,-1 C0.5519999861717224,-1 1,-0.5519999861717224 1,0 C1,0.5519999861717224 0.5519999861717224,1 0,1 C-0.5519999861717224,1 -1,0.5519999861717224 -1,0 C-1,-0.5519999861717224 -0.5519999861717224,-1 0,-1z"/></g><g id="l_d_1772" opacity="1" transform="matrix(1,0,0,1,31,43)"><path id="l_d_1773" fill="rgb(34,34,34)" fill-opacity="1" d=" M0,-1 C0.5519999861717224,-1 1,-0.5519999861717224 1,0 C1,0.5519999861717224 0.5519999861717224,1 0,1 C-0.5519999861717224,1 -1,0.5519999861717224 -1,0 C-1,-0.5519999861717224 -0.5519999861717224,-1 0,-1z"/></g><g id="l_d_1774" opacity="1" transform="matrix(1,0,0,1,40,34)"><path id="l_d_1775" stroke-linecap="butt" stroke-linejoin="miter" fill-opacity="0" stroke-miterlimit="4" stroke="rgb(34,34,34)" stroke-opacity="1" stroke-width="2" d=" M-7.307000160217285,-4 C-7.307000160217285,-4 7.307000160217285,-4 7.307000160217285,-4 C7.723999977111816,-4 8.097000122070312,-3.740999937057495 8.243000030517578,-3.3510000705718994 C8.243000030517578,-3.3510000705718994 11,4 11,4 C11,4 11,4 11,4 C11,4 -11,4 -11,4 C-11,4 -8.243000030517578,-3.3510000705718994 -8.243000030517578,-3.3510000705718994 C-8.097000122070312,-3.740999937057495 -7.723999977111816,-4 -7.307000160217285,-4z"/></g><g id="l_d_1776" opacity="1" transform="matrix(1,0,0,1,27.5,36)"><path id="l_d_1777" fill="rgb(34,34,34)" fill-opacity="1" d=" M-1.5,-1 C-1.5,-1 1.5,-1 1.5,-1 C1.5,-1 1.5,1 1.5,1 C1.5,1 -1.5,1 -1.5,1 C-1.5,1 -1.5,-1 -1.5,-1z"/></g><g id="l_d_1778" opacity="1" transform="matrix(1,0,0,1,52.5,36)"><path id="l_d_1779" fill="rgb(34,34,34)" fill-opacity="1" d=" M-1.5,-1 C-1.5,-1 1.5,-1 1.5,-1 C1.5,-1 1.5,1 1.5,1 C1.5,1 -1.5,1 -1.5,1 C-1.5,1 -1.5,-1 -1.5,-1z"/></g><g id="l_d_1780" opacity="1" transform="matrix(1,0,0,1,40,43)"><path id="l_d_1781" stroke-linecap="butt" stroke-linejoin="miter" fill-opacity="0" stroke-miterlimit="4" stroke="rgb(34,34,34)" stroke-opacity="1" stroke-width="2" d=" M-6,0 C-6,0 6,0 6,0"/></g></g><g id="l_d_1756" clip-path="url(#__lottie_element_713)" style="display: none;" transform="matrix(1,0,0,1,16,21.625)" opacity="1"><g id="l_d_1762" opacity="1" transform="matrix(1,0,0,1,0,0)"><path id="l_d_1763" fill="rgb(34,34,34)" fill-opacity="1" d=" M-0.847000002861023,8 C-0.847000002861023,8 -3.4170000553131104,20.75 -3.4170000553131104,20.75 C-3.4170000553131104,20.75 3.0829999446868896,20.75 3.0829999446868896,20.75 C3.0829999446868896,20.75 0.3190000057220459,8.083000183105469 0.3190000057220459,8.083000183105469"/></g></g><g id="l_d_1748" clip-path="url(#__lottie_element_710)" style="display: none;" transform="matrix(1,0,0,1,16,21.625)" opacity="1"><g id="l_d_1754" opacity="1" transform="matrix(1,0,0,1,0,0)"><path id="l_d_1755" fill="rgb(34,34,34)" fill-opacity="1" d=" M-0.847000002861023,8 C-0.847000002861023,8 -3.4170000553131104,20.75 -3.4170000553131104,20.75 C-3.4170000553131104,20.75 3.0829999446868896,20.75 3.0829999446868896,20.75 C3.0829999446868896,20.75 0.3190000057220459,8.083000183105469 0.3190000057220459,8.083000183105469"/></g></g><g id="l_d_1740" clip-path="url(#__lottie_element_707)" style="display: none;" transform="matrix(1,0,0,1,16,21.625)" opacity="1"><g id="l_d_1746" opacity="1" transform="matrix(1,0,0,1,0,0)"><path id="l_d_1747" fill="rgb(34,34,34)" fill-opacity="1" d=" M-0.847000002861023,8 C-0.847000002861023,8 -3.4170000553131104,20.75 -3.4170000553131104,20.75 C-3.4170000553131104,20.75 3.0829999446868896,20.75 3.0829999446868896,20.75 C3.0829999446868896,20.75 0.3190000057220459,8.083000183105469 0.3190000057220459,8.083000183105469"/></g></g><g id="l_d_1732" clip-path="url(#__lottie_element_704)" style="display: none;" transform="matrix(1,0,0,1,16,21.625)" opacity="1"><g id="l_d_1738" opacity="1" transform="matrix(1,0,0,1,0,0)"><path id="l_d_1739" fill="rgb(34,34,34)" fill-opacity="1" d=" M-0.847000002861023,8 C-0.847000002861023,8 -3.4170000553131104,20.75 -3.4170000553131104,20.75 C-3.4170000553131104,20.75 3.0829999446868896,20.75 3.0829999446868896,20.75 C3.0829999446868896,20.75 0.3190000057220459,8.083000183105469 0.3190000057220459,8.083000183105469"/></g></g><g id="l_d_1724" clip-path="url(#__lottie_element_701)" style="display: none;" transform="matrix(1,0,0,1,16,21.625)" opacity="1"><g id="l_d_1730" opacity="1" transform="matrix(1,0,0,1,0,0)"><path id="l_d_1731" fill="rgb(34,34,34)" fill-opacity="1" d=" M-0.847000002861023,8 C-0.847000002861023,8 -3.4170000553131104,20.75 -3.4170000553131104,20.75 C-3.4170000553131104,20.75 3.0829999446868896,20.75 3.0829999446868896,20.75 C3.0829999446868896,20.75 0.3190000057220459,8.083000183105469 0.3190000057220459,8.083000183105469"/></g></g><g id="l_d_1716" clip-path="url(#__lottie_element_698)" style="display: none;" transform="matrix(1,0,0,1,16,21.625)" opacity="1"><g id="l_d_1722" opacity="1" transform="matrix(1,0,0,1,0,0)"><path id="l_d_1723" fill="rgb(34,34,34)" fill-opacity="1" d=" M-0.847000002861023,8 C-0.847000002861023,8 -3.4170000553131104,20.75 -3.4170000553131104,20.75 C-3.4170000553131104,20.75 3.0829999446868896,20.75 3.0829999446868896,20.75 C3.0829999446868896,20.75 0.3190000057220459,8.083000183105469 0.3190000057220459,8.083000183105469"/></g></g><g id="l_d_1708" clip-path="url(#__lottie_element_695)" style="display: none;" transform="matrix(1,0,0,1,16,21.625)" opacity="1"><g id="l_d_1714" opacity="1" transform="matrix(1,0,0,1,0,0)"><path id="l_d_1715" fill="rgb(34,34,34)" fill-opacity="1" d=" M-0.847000002861023,8 C-0.847000002861023,8 -3.4170000553131104,20.75 -3.4170000553131104,20.75 C-3.4170000553131104,20.75 3.0829999446868896,20.75 3.0829999446868896,20.75 C3.0829999446868896,20.75 0.3190000057220459,8.083000183105469 0.3190000057220459,8.083000183105469"/></g></g></g></svg>