<svg id="Layer_1" data-name="Layer 1" xmlns="http://www.w3.org/2000/svg" viewBox="0 0 40 24"><defs><style>.cls-1{fill:#fff;}.cls-1,.cls-2,.cls-3,.cls-4{fill-rule:evenodd;}.cls-2{fill:#209fda;}.cls-3{fill:#eb2227;}.cls-4{fill:#04a54f;}</style></defs><title>DLS_Payment_JCB</title><path class="cls-1" d="M0,2A2,2,0,0,1,2,0H38a2,2,0,0,1,2,2V22a2,2,0,0,1-2,2H2a2,2,0,0,1-2-2V2Z" transform="translate(0)"/><path class="cls-2" d="M12,20h2.8a2.23,2.23,0,0,0,2.12-2.12V4H14.21A2.08,2.08,0,0,0,12,6.23V20Z" transform="translate(0)"/><path class="cls-3" d="M17.54,20h2.8a2.23,2.23,0,0,0,2.12-2.12V4H19.75a2.08,2.08,0,0,0-2.22,2.19V20Z" transform="translate(0)"/><path class="cls-4" d="M23.08,20h2.8A2.23,2.23,0,0,0,28,17.84V4H25.3a2.08,2.08,0,0,0-2.22,2.19V20Z" transform="translate(0)"/><path class="cls-1" d="M12.76,12.39H12a2.39,2.39,0,0,0,2.37,1.54c1,0,2.46-.59,2.46-1.69v-2H15.07v2a1.05,1.05,0,0,1-1.11,1,1.18,1.18,0,0,1-1.2-.89" transform="translate(0)"/><path class="cls-1" d="M28,12.79a0.87,0.87,0,0,1-.92.83H23.2V10.23h3.88a0.86,0.86,0,0,1,0,1.72A0.87,0.87,0,0,1,28,12.79Zm-3.33-1h1.2a0.59,0.59,0,1,0,0-1.17h-1.2v1.17Zm1.23,1.48a0.59,0.59,0,1,0,0-1.17H24.68v1.17h1.23Z" transform="translate(0)"/><path class="cls-1" d="M22.34,13v0.59h-3a1.69,1.69,0,0,1,0-3.39h3v0.62a9.85,9.85,0,0,0-1.72-.25,1.32,1.32,0,0,0,0,2.65A9.17,9.17,0,0,0,22.34,13" transform="translate(0)"/></svg>
